HIERARCHY
ROOT Hips
{
    OFFSET 0.000000 0.000000 0.000000
    CHANNELS 6 Xposition Yposition Zposition Zrotation Xrotation Yrotation
    JOINT Spine
    {
        OFFSET -0.000000 7.236184 0.000000
        CHANNELS 3 Zrotation Xrotation Yrotation
        JOINT Spine1
        {
            OFFSET -0.000000 20.420147 0.000000
            CHANNELS 3 Zrotation Xrotation Yrotation
            JOINT Neck
            {
                OFFSET -0.000000 20.336288 1.848754
                CHANNELS 3 Zrotation Xrotation Yrotation
                JOINT Head
                {
                    OFFSET -0.000000 12.354461 -1.764923
                    CHANNELS 3 Zrotation Xrotation Yrotation
                    End Site
                    {
                        OFFSET -0.000000 22.061537 0.000000
                    }
                }
            }
            JOINT LeftShoulder
            {
                OFFSET 3.573296 18.396038 -0.314103
                CHANNELS 3 Zrotation Xrotation Yrotation
                JOINT LeftArm
                {
                    OFFSET 10.880760 0.000000 0.000000
                    CHANNELS 3 Zrotation Xrotation Yrotation
                    JOINT LeftForeArm
                    {
                        OFFSET 27.185530 0.000000 0.000000
                        CHANNELS 3 Zrotation Xrotation Yrotation
                        JOINT LeftHand
                        {
                            OFFSET 27.825975 0.000000 0.000000
                            CHANNELS 3 Zrotation Xrotation Yrotation
                            End Site
                            {
                                OFFSET 13.236923 0.000000 0.000000
                            }
                        }
                    }
                }
            }
            JOINT RightShoulder
            {
                OFFSET -3.474926 18.396038 -0.314103
                CHANNELS 3 Zrotation Xrotation Yrotation
                JOINT RightArm
                {
                    OFFSET -10.880760 0.000000 0.000000
                    CHANNELS 3 Zrotation Xrotation Yrotation
                    JOINT RightForeArm
                    {
                        OFFSET -27.185530 0.000000 0.000000
                        CHANNELS 3 Zrotation Xrotation Yrotation
                        JOINT RightHand
                        {
                            OFFSET -27.825975 0.000000 0.000000
                            CHANNELS 3 Zrotation Xrotation Yrotation
                            End Site
                            {
                                OFFSET -13.236923 0.000000 0.000000
                            }
                        }
                    }
                }
            }
        }
    }
    JOINT LeftUpLeg
    {
        OFFSET 8.824615 0.000000 0.000000
        CHANNELS 3 Zrotation Xrotation Yrotation
        JOINT LeftLeg
        {
            OFFSET -0.000000 -35.111282 0.000000
            CHANNELS 3 Zrotation Xrotation Yrotation
            JOINT LeftFoot
            {
                OFFSET -0.000000 -42.324711 0.000000
                CHANNELS 3 Zrotation Xrotation Yrotation
                JOINT LeftToeBase
                {
                    OFFSET -0.000000 -5.735999 13.236923
                    CHANNELS 3 Zrotation Xrotation Yrotation
                    End Site
                    {
                        OFFSET -0.000000 0.000000 3.529846
                    }
                }
            }
        }
    }
    JOINT RightUpLeg
    {
        OFFSET -8.824615 0.000000 0.000000
        CHANNELS 3 Zrotation Xrotation Yrotation
        JOINT RightLeg
        {
            OFFSET -0.000000 -35.111282 0.000000
            CHANNELS 3 Zrotation Xrotation Yrotation
            JOINT RightFoot
            {
                OFFSET -0.000000 -42.324711 0.000000
                CHANNELS 3 Zrotation Xrotation Yrotation
                JOINT RightToeBase
                {
                    OFFSET -0.000000 -5.735999 13.236923
                    CHANNELS 3 Zrotation Xrotation Yrotation
                    End Site
                    {
                        OFFSET -0.000000 0.000000 3.529846
                    }
                }
            }
        }
    }
}
MOTION
Frames:    11
Frame Time:    0.008333
-4.242490    77.400986    116.475929    -2.777926    -6.996928    177.199234    -4.377898    -1.771974    0.751636    1.521848    3.558899    0.772145    2.764910    5.369380    -1.074358    5.898430    -23.362835    0.609668    -2.425998    17.343496    -8.449071    -12.987381    53.303120    -71.852966    13.456658    -3.861762    -22.313297    28.508471    -2.377884    -4.643880    9.491950    19.002977    -1.723791    11.830602    49.013016    65.203568    -10.214158    -14.130108    36.293510    -23.582893    -11.303637    2.202115    -5.000534    -31.885769    -6.606838    -4.844858    54.856243    19.301172    -8.803295    -11.978019    -19.608728    0.028657    -6.551546    -0.032170    -5.509324    -30.429951    -0.349051    12.197152    57.721867    -2.998924    4.253158    -8.499093    -10.912505    -0.184807    -13.888749    0.204302    
-4.249918    77.299355    116.460213    -2.753569    -6.942999    177.292496    -4.350550    -1.777739    0.741445    1.496386    3.573005    0.762376    2.779227    5.447414    -1.098110    5.887295    -23.792446    0.603038    -2.405556    17.324982    -8.404299    -13.515855    53.134331    -71.242302    13.457542    -3.830515    -22.416164    28.512636    -2.319994    -4.589129    9.512172    19.033783    -1.741002    11.864796    48.978737    65.109543    -10.235670    -14.065779    36.326553    -23.673807    -11.236347    2.231978    -4.968079    -32.047867    -6.508140    -4.882330    55.220085    19.412870    -8.756610    -11.904044    -19.767126    0.069044    -6.600431    -0.077510    -5.490732    -30.633883    -0.385389    12.346508    58.180954    -3.098919    4.168400    -8.369287    -11.138412    -0.148996    -13.932410    0.164729    
-4.253323    77.199455    116.442238    -2.720057    -6.898442    177.386047    -4.311974    -1.802646    0.731066    1.463793    3.596918    0.752989    2.795058    5.522649    -1.121136    5.867922    -24.229469    0.594385    -2.391115    17.319744    -8.340053    -14.154243    52.929108    -70.523186    13.404767    -3.799642    -22.434549    28.534327    -2.272862    -4.488792    9.546545    19.072399    -1.768286    11.997155    48.913734    64.924828    -10.245095    -13.986491    36.263985    -23.745066    -11.171245    2.283417    -4.932907    -32.200100    -6.408164    -4.892077    55.562572    19.505112    -8.707613    -11.859034    -19.916527    0.102512    -6.645423    -0.115089    -5.442874    -30.828796    -0.427595    12.451794    58.620262    -3.161705    4.059419    -8.257296    -11.388809    -0.111519    -13.965390    0.123307    
-4.252730    77.101669    116.422104    -2.677049    -6.864921    177.480972    -4.260983    -1.847520    0.719538    1.422149    3.628683    0.743328    2.814675    5.596171    -1.142665    5.839967    -24.673162    0.584087    -2.381329    17.327730    -8.255757    -14.903396    52.683140    -69.695648    13.301082    -3.755925    -22.360777    28.560163    -2.230164    -4.372029    9.596159    19.118853    -1.807278    12.225997    48.816914    64.651314    -10.242030    -13.890043    36.099667    -23.798666    -11.106791    2.355754    -4.896236    -32.342495    -6.306990    -4.867761    55.881786    19.569574    -8.659172    -11.844832    -20.056549    0.127878    -6.687913    -0.143580    -5.365419    -31.014271    -0.474043    12.513420    59.036411    -3.191229    3.927206    -8.162564    -11.661278    -0.072568    -13.991386    0.080248    
-4.248170    77.006378    116.399719    -2.624631    -6.843114    177.578568    -4.196940    -1.912350    0.706194    1.369653    3.666783    0.732513    2.839635    5.667523    -1.162099    5.803543    -25.122816    0.572456    -2.375254    17.348171    -8.150149    -15.773244    52.389496    -68.750267    13.149303    -3.684916    -22.186255    28.574724    -2.184737    -4.269287    9.661661    19.173035    -1.860133    12.552609    48.685455    64.288246    -10.225047    -13.773862    35.825172    -23.840160    -11.041462    2.447742    -4.859704    -32.475040    -6.206150    -4.805448    56.176872    19.600912    -8.613244    -11.861908    -20.187269    0.143470    -6.728989    -0.161099    -5.258356    -31.190237    -0.522896    12.532360    59.427967    -3.190737    3.772330    -8.083267    -11.955095    -0.032045    -14.013216    0.035447    
-4.239744    76.915764    116.375336    -2.564111    -6.833164    177.678253    -4.120873    -1.995396    0.690557    1.305852    3.709724    0.720050    2.870289    5.735948    -1.178619    5.760026    -25.573454    0.560514    -2.372678    17.380730    -8.022769    -16.758638    52.042763    -67.692467    12.952952    -3.578881    -21.908453    28.564062    -2.133545    -4.204977    9.742113    19.233141    -1.927880    12.973487    48.518177    63.839489    -10.192936    -13.637743    35.437435    -23.875380    -10.974844    2.555568    -4.825501    -32.595455    -6.109721    -4.704664    56.442753    19.595596    -8.572112    -11.908218    -20.306870    0.147732    -6.768733    -0.165898    -5.124008    -31.354004    -0.570283    12.511664    59.787903    -3.165059    3.598569    -8.017683    -12.264947    0.009786    -14.034473    -0.010804    
-4.227496    76.831024    116.348770    -2.496458    -6.833613    177.780457    -4.033767    -2.095055    0.672087    1.230490    3.757375    0.705590    2.906292    5.800717    -1.191795    5.710748    -26.024572    0.549062    -2.373741    17.423658    -7.871972    -17.866869    51.633678    -66.513504    12.711682    -3.437531    -21.526043    28.518440    -2.077984    -4.190717    9.836300    19.297506    -2.011673    13.492571    48.310432    63.301296    -10.142826    -13.479234    34.930851    -23.910318    -10.905318    2.677371    -4.795110    -32.702309    -6.021016    -4.566746    56.678532    19.553850    -8.537574    -11.980043    -20.416494    0.139847    -6.807184    -0.157056    -4.963913    -31.503944    -0.610616    12.458909    60.113796    -3.122338    3.408364    -7.962713    -12.589701    0.053146    -14.057236    -0.058749    
-4.211546    76.754120    116.320000    -2.423348    -6.842584    177.884750    -3.938348    -2.208978    0.650911    1.145840    3.810008    0.688730    2.945536    5.860721    -1.201495    5.657518    -26.473907    0.539019    -2.379552    17.474665    -7.697681    -19.096663    51.152939    -65.211975    12.425111    -3.267347    -21.043062    28.432159    -2.023010    -4.226756    9.941263    19.364101    -2.112121    14.111670    48.057102    62.671654    -10.072401    -13.297048    34.304455    -23.948034    -10.831598    2.810816    -4.770027    -32.793541    -5.944167    -4.395813    56.881870    19.479408    -8.510346    -12.072087    -20.517838    0.119998    -6.841317    -0.134774    -4.781119    -31.637009    -0.636257    12.385840    60.400562    -3.074743    3.205679    -7.915473    -12.925976    0.098065    -14.083512    -0.108423    
-4.192023    76.687035    116.288780    -2.346498    -6.857409    177.990707    -3.838274    -2.335204    0.627089    1.056046    3.868919    0.669645    2.984505    5.914781    -1.207870    5.602201    -26.918707    0.530936    -2.392982    17.530855    -7.500604    -20.445902    50.589584    -63.784664    12.093246    -3.075950    -20.465210    28.301804    -1.971713    -4.305231    10.053153    19.429337    -2.229197    14.835759    47.752262    61.944023    -9.978696    -13.089018    33.558815    -23.988693    -10.751433    2.955082    -4.751066    -32.866478    -5.882481    -4.197504    57.050625    19.379316    -8.491688    -12.177666    -20.614681    0.089628    -6.867449    -0.100671    -4.578886    -31.749338    -0.638794    12.306581    60.642723    -3.036683    2.994152    -7.872693    -13.270646    0.144583    -14.114960    -0.159870    
-4.168983    76.631798    116.254616    -2.267552    -6.875196    178.097870    -3.737528    -2.472284    0.601111    0.965917    3.935902    0.648718    3.019777    5.961782    -1.211274    5.545070    -27.357988    0.524747    -2.416374    17.588549    -7.281798    -21.914026    49.929657    -62.224579    11.716896    -2.868911    -19.795883    28.123732    -1.924350    -4.414713    10.168038    19.490175    -2.363823    15.673168    47.385864    61.107529    -9.857645    -12.851492    32.692951    -24.029886    -10.661581    3.110304    -4.738460    -32.918041    -5.839259    -3.979617    57.182144    19.265423    -8.481014    -12.290387    -20.712330    0.050113    -6.882581    -0.056291    -4.359861    -31.836576    -0.609569    12.235471    60.834919    -3.022396    2.775854    -7.831443    -13.622353    0.192892    -14.151953    -0.213308    
-4.142869    76.591156    116.217377    -2.189608    -6.892660    178.203857    -3.641677    -2.617120    0.574315    0.881172    4.011694    0.626778    3.047386    6.000136    -1.212322    5.487858    -27.783243    0.520488    -2.450880    17.642969    -7.045953    -23.472607    49.169380    -60.552589    11.304693    -2.653550    -19.049559    27.897337    -1.879782    -4.541975    10.280860    19.542128    -2.514527    16.617945    46.953308    60.163773    -9.707698    -12.584978    31.721424    -24.066383    -10.559929    3.274300    -4.732006    -32.943394    -5.819302    -3.757889    57.270805    19.156511    -8.479017    -12.401993    -20.814667    0.002808    -6.885465    -0.003158    -4.130273    -31.892582    -0.541862    12.185719    60.969067    -3.044044    2.555479    -7.789454    -13.974287    0.242083    -14.194409    -0.267729    
